<svg xmlns="http://www.w3.org/2000/svg" version="1.1" xmlns:xlink="http://www.w3.org/1999/xlink" width="48" height="48"><svg id="SvgjsSvg1005" data-name="Layer 1" xmlns="http://www.w3.org/2000/svg" viewBox="0 0 48 48">
  <defs>
    <style>
      .cls-1 {
        fill: #fff;
      }

      .cls-2 {
        fill: #007f3d;
      }
    </style>
  </defs>
  <path class="cls-2" d="M46.51,16.18c-.07,6.24-3.18,12.02-8.02,15.82-8.38,6.57-20.63,6.57-29.01,0-4.84-3.8-7.96-9.58-8.02-15.82h45.06ZM26.05,17.3H3.72v1.7h3.72v1.61h-1.12v2.07h1.12v2.48c-.67-.68-1.11-1.53-1.55-2.36h-1.92c.5,1.59,1.39,3.13,2.73,4.15.6.46,1.64.98,2.37.51.12-.08.36-.38.36-.51v-7.96h5.29v2.44h-4.59v1.74h.91v8.21c.68.49,1.39.95,2.15,1.3v-9.52h1.53v10.3l2.15.79v-15.27h2.48v3.76h-.81c-.11,0-.53.13-.65.18-.97.4-.65,1.74-.33,2.5.43,1,2.41,4.03,3.69,2.6.1-.11.29-.44.29-.58,0-.06-.04-.11-.04-.12v-2.77l.06-.06h1.3v10.92h2.15v-16.42h1.03v-1.7ZM44.57,17.3h-17.49v1.7h4.22v6.95c-.53.27-1.84,1.19-2.25.37-.02-.04-.11-.28-.11-.31v-2.38h1.07v-1.72l-.06-.06h-4.03v1.78h1.03c.14,1.81-.68,4.4,1.78,4.86.95.18,1.73-.06,2.57-.48v6.25l2.15-.79v-14.48h.74v13.74l2.15-1.28v-12.45h1.1c.62.52.81,1.52-.08,1.86-.17.07-.35.08-.52.15-.01,1.03-.26,2.66.48,3.49.51.58,1.58.76,2.31.66.4-.05.78-.21,1.14-.37v2.4c.81-.76,1.5-1.64,2.15-2.54v-5.65h1.65v-1.7Z"></path>
  <rect class="cls-2" x="1.45" y="13.91" width="45.06" height="1.57"></rect>
  <rect class="cls-2" x="1.45" y="12.71" width="45.06" height=".5"></rect>
  <path class="cls-1" d="M26.05,17.3v1.7h-1.03v16.42h-2.15v-10.92h-1.3l-.06.06v2.77s.04.06.04.12c0,.14-.19.47-.29.58-1.27,1.43-3.26-1.59-3.69-2.6-.32-.76-.65-2.1.33-2.5.12-.05.54-.18.65-.18h.81v-3.76h-2.48v15.27l-2.15-.79v-10.3h-1.53v9.52c-.76-.35-1.47-.81-2.15-1.3v-8.21h-.91v-1.74h4.59v-2.44h-5.29v7.96c0,.13-.24.43-.36.51-.73.46-1.76-.06-2.37-.51-1.34-1.02-2.23-2.56-2.73-4.15h1.92c.44.83.88,1.68,1.55,2.36v-2.48h-1.12v-2.07h1.12v-1.61h-3.72v-1.7h22.32ZM22.86,18.99h-1.36v3.76h1.36v-3.76ZM19.35,24.5c-.76-.11-.31.78,0,1.03v-1.03Z"></path>
  <path class="cls-1" d="M44.57,17.3v1.7h-1.65v5.65c-.65.9-1.34,1.78-2.15,2.54v-2.4c-.36.16-.75.31-1.14.37-.73.1-1.8-.08-2.31-.66-.74-.83-.49-2.46-.48-3.49.17-.07.35-.08.52-.15.89-.34.7-1.34.08-1.86h-1.1v12.45l-2.15,1.28v-13.74h-.74v14.48l-2.15.79v-6.25c-.84.42-1.62.66-2.57.48-2.46-.46-1.63-3.06-1.78-4.86h-1.03v-1.78h4.03l.06.06v1.72h-1.07v2.38s.09.27.11.31c.41.82,1.71-.1,2.25-.37v-6.95h-4.22v-1.7h17.49ZM40.76,18.99h-.95c.26,1.03.21,2.34-.9,2.82.03.54-.26,1.26.26,1.65.56.41,1.22-.03,1.59-.48v-3.99Z"></path>
  <rect class="cls-2" x="21.5" y="18.99" width="1.36" height="3.76"></rect>
  <path class="cls-2" d="M19.35,24.5v1.03c-.31-.25-.76-1.15,0-1.03Z"></path>
  <path class="cls-2" d="M40.76,18.99v3.99c-.37.45-1.04.89-1.59.48-.52-.38-.23-1.11-.26-1.65,1.11-.48,1.16-1.79.9-2.82h.95Z"></path>
</svg><style>@media (prefers-color-scheme: light) { :root { filter: none; } }
@media (prefers-color-scheme: dark) { :root { filter: none; } }
</style></svg>