<svg xmlns="http://www.w3.org/2000/svg" width="16" height="17" viewBox="0 0 16 17" fill="none">
    <path
        d="M9.46536 8.01311L15.6954 1.78284C16.1009 1.37759 16.1009 0.72235 15.6954 0.317097C15.2902 -0.0881564 14.6349 -0.0881564 14.2297 0.317097L7.99942 6.54737L1.76934 0.317097C1.3639 -0.0881564 0.708847 -0.0881564 0.303594 0.317097C-0.101849 0.72235 -0.101849 1.37759 0.303594 1.78284L6.53368 8.01311L0.303594 14.2434C-0.101849 14.6486 -0.101849 15.3039 0.303594 15.7091C0.505556 15.9113 0.771106 16.0128 1.03647 16.0128C1.30183 16.0128 1.56719 15.9113 1.76934 15.7091L7.99942 9.47886L14.2297 15.7091C14.4318 15.9113 14.6972 16.0128 14.9626 16.0128C15.2279 16.0128 15.4933 15.9113 15.6954 15.7091C16.1009 15.3039 16.1009 14.6486 15.6954 14.2434L9.46536 8.01311Z"
        fill="#535353" />
</svg>