<svg width="1421" height="700" viewBox="0 0 1421 700" fill="none" xmlns="http://www.w3.org/2000/svg">
<path d="M1431 0V687.591H1430.6C1395.87 687.591 1395.87 700 1361.15 700C1326.42 700 1326.42 687.591 1291.69 687.591C1256.96 687.591 1256.96 700 1222.23 700C1187.51 700 1187.51 687.591 1152.78 687.591C1118.05 687.591 1118.05 700 1083.32 700C1048.6 700 1048.6 687.591 1013.87 687.591C979.141 687.591 979.141 700 944.413 700C909.685 700 909.685 687.591 874.958 687.591C840.23 687.591 840.23 700 805.502 700C770.775 700 770.775 687.591 736.047 687.591C701.319 687.591 701.319 700 666.591 700C631.864 700 631.864 687.591 597.136 687.591C562.408 687.591 562.408 700 527.681 700C492.953 700 492.953 687.591 458.225 687.591C423.498 687.591 423.497 700 388.77 700C354.042 700 354.042 687.591 319.314 687.591C284.587 687.591 284.587 700 249.859 700C215.131 700 215.131 687.591 180.404 687.591C145.676 687.591 145.676 700 110.948 700C76.2205 700 76.2205 687.591 41.4928 687.591C14.0499 687.591 8.26198 695.328 -10 698.613V11.0219C9.06032 7.73723 14.7485 0 42.1913 0C76.919 0 76.919 12.4088 111.647 12.4088C146.374 12.4088 146.374 0 181.102 0C215.83 0 215.83 12.4088 250.558 12.4088C285.285 12.4088 285.285 0 320.013 0C354.741 0 354.741 12.4088 389.468 12.4088C424.196 12.4088 424.196 0 458.924 0C493.651 0 493.651 12.4088 528.379 12.4088C563.107 12.4088 563.107 0 597.835 0C632.562 0 632.562 12.4088 667.29 12.4088C702.018 12.4088 702.018 0 736.745 0C771.074 0 771.074 12.4088 805.802 12.4088C840.529 12.4088 840.529 0 875.257 0C909.985 0 909.985 12.4088 944.712 12.4088C979.44 12.4088 979.44 0 1014.17 0C1048.9 0 1048.9 12.4088 1083.62 12.4088C1118.35 12.4088 1118.35 0 1153.08 0C1187.81 0 1187.81 12.4088 1222.53 12.4088C1257.26 12.4088 1257.26 0 1291.99 0C1326.72 0 1326.72 12.4088 1361.44 12.4088C1396.17 12.4088 1396.17 0 1430.9 0H1431Z" fill="#7F3B2D"/>
</svg>
